<svg width="40" height="40" viewBox="0 0 40 40" fill="none" xmlns="http://www.w3.org/2000/svg">
<g clip-path="url(#clip0-093223)">
<path d="M10.4159 30.8854C7.74767 30.8854 5.37426 29.177 4.51242 26.6336L4.45413 26.442C4.25088 25.7684 4.16574 25.202 4.16574 24.6353V13.2715L0.122364 26.7685C-0.397668 28.7537 0.787358 30.8119 2.77563 31.3603L28.548 38.2623C28.8697 38.3456 29.1914 38.3856 29.5082 38.3856C31.168 38.3856 32.6848 37.2839 33.1099 35.6603L34.6114 30.8854H10.4159Z" fill="#74B9FF"/>
<path d="M40 5.46787V24.6352C40 26.7019 38.3166 28.3853 36.2499 28.3853H10.4159C10.2492 28.3853 10.0826 28.3685 9.93245 28.3517C8.18253 28.1354 6.81592 26.7019 6.68256 24.9352C6.66577 24.8351 6.66577 24.735 6.66577 24.6352V5.46787C6.66577 3.40116 8.34916 1.71777 10.4159 1.71777H36.2499C38.3166 1.71777 40 3.40116 40 5.46787Z" fill="#74B9FF"/>
<path d="M18.3327 10.0513C18.3327 11.8922 16.8404 13.3848 14.9995 13.3848C13.1584 13.3848 11.666 11.8922 11.666 10.0513C11.666 8.21043 13.1584 6.71777 14.9995 6.71777C16.8404 6.71777 18.3327 8.21043 18.3327 10.0513Z" fill="#FFC107"/>
<path d="M39.9999 19.9515V24.6351C39.9999 26.7018 38.3166 28.3852 36.2499 28.3852H10.4158C10.2492 28.3852 10.0825 28.3685 9.93237 28.3517L27.0995 11.1848C28.233 10.0514 30.0995 10.0514 31.2329 11.1848L39.9999 19.9515Z" fill="#388E3C"/>
<path d="M30.0996 28.3852H10.4159C10.2493 28.3852 10.0827 28.3684 9.93251 28.3517C8.18259 28.1353 6.81598 26.7018 6.68262 24.9351L14.5994 17.0181C15.7328 15.8849 17.5993 15.8849 18.7328 17.0181L30.0996 28.3852Z" fill="#4CAF50"/>
</g>
<defs>
<clipPath id="clip0-093223">
<rect width="40" height="40" fill="white"/>
</clipPath>
</defs>
</svg>