<svg width="13" height="12" viewBox="0 0 13 12" fill="none" xmlns="http://www.w3.org/2000/svg">
<path d="M12.5 10.6667V1.33333C12.5 0.6 11.9 0 11.1667 0H1.83333C1.1 0 0.5 0.6 0.5 1.33333V10.6667C0.5 11.4 1.1 12 1.83333 12H11.1667C11.9 12 12.5 11.4 12.5 10.6667ZM4.43333 7.32L5.83333 9.00667L7.9 6.34667C8.03333 6.17333 8.3 6.17333 8.43333 6.35333L10.7733 9.47333C10.94 9.69333 10.78 10.0067 10.5067 10.0067H2.51333C2.23333 10.0067 2.08 9.68667 2.25333 9.46667L3.91333 7.33333C4.04 7.16 4.29333 7.15333 4.43333 7.32Z" fill="#2E3554"/>
</svg>