<svg width="20" height="20" viewBox="0 0 20 20" fill="none" xmlns="http://www.w3.org/2000/svg">
<path d="M9.99996 1.66675C5.39996 1.66675 1.66663 5.40008 1.66663 10.0001C1.66663 14.6001 5.39996 18.3334 9.99996 18.3334C14.6 18.3334 18.3333 14.6001 18.3333 10.0001C18.3333 5.40008 14.6 1.66675 9.99996 1.66675ZM7.74163 13.5751L4.74996 10.5834C4.42496 10.2584 4.42496 9.73341 4.74996 9.40841C5.07496 9.08342 5.59996 9.08342 5.92496 9.40841L8.33329 11.8084L14.0666 6.07508C14.3916 5.75008 14.9166 5.75008 15.2416 6.07508C15.5666 6.40008 15.5666 6.92508 15.2416 7.25008L8.91663 13.5751C8.59996 13.9001 8.06663 13.9001 7.74163 13.5751Z" fill="#2E3554"/>
</svg>